+ PATH=/home/admin/.nvm/versions/node/v24.4.1/bin:/usr/local/sbin:/usr/local/bin:/usr/sbin:/usr/bin:/sbin:/bin:/usr/local/games:/usr/games:/home/admin/.nvm/versions/node/v24.4.1/bin
+ IMAGEDIR=/tmp/wa
+ export 'GIT_SSH_COMMAND=ssh -i ~/.ssh/deploy_key'
+ GIT_SSH_COMMAND='ssh -i ~/.ssh/deploy_key'
+ rm -r /tmp/wa
+ mkdir /tmp/wa
+ cd /home/admin/Documents/basic/docs/wa/pw
+ rm -fv 7day.png accuweather.png aos.png captain.png cones.png ikite.png noaa.png pos.png surfchex1.png surfchex2.png tides.png wos.png
removed '7day.png'
removed 'accuweather.png'
removed 'aos.png'
removed 'captain.png'
removed 'cones.png'
removed 'ikite.png'
removed 'noaa.png'
removed 'pos.png'
removed 'surfchex1.png'
removed 'surfchex2.png'
removed 'tides.png'
removed 'wos.png'
+ echo 'Starting with deploy.sh'
+ date
+ whereis npx
+ npx playwright test --trace on
+ cp /tmp/wa/7day.png /tmp/wa/accuweather.png /tmp/wa/captain.png /tmp/wa/cones.png /tmp/wa/ikite.png /tmp/wa/noaa.png /tmp/wa/surfchex1.png /tmp/wa/surfchex2.png /tmp/wa/tides.png .
+ echo 'new images from /tmp/wa:'
new images from /tmp/wa:
+ ls -ltr 7day.png accuweather.png captain.png cones.png ikite.png noaa.png surfchex1.png surfchex2.png tides.png
+ git checkout main
Already on 'main'
M	docs/wa/pw/7day.png
M	docs/wa/pw/accuweather.png
D	docs/wa/pw/aos.png
M	docs/wa/pw/captain.png
M	docs/wa/pw/ikite.png
M	docs/wa/pw/noaa.png
D	docs/wa/pw/pos.png
M	docs/wa/pw/surfchex1.png
M	docs/wa/pw/surfchex2.png
M	docs/wa/pw/tides.png
D	docs/wa/pw/wos.png
Your branch is up to date with 'origin/main'.
+ echo 'Git branches right now: \n'
+ git branch -l
+ pwd
+ cp /home/admin/Documents/surf-temp.gif .
+ ls -asl /home/admin/Documents/surf-temp.gif ./surf-temp.gif
++ date '+%Y-%m-%d: %H:%M'
+ DATESTR='2025-07-31: 14:46'
+ wget https://5b17d0ba29814.streamlock.net:9443/live/rodanthe.stream/chunklist_w144885282.m3u8 -O /tmp/chunklist_w144885282.m3u8
--2025-07-31 14:46:52--  https://5b17d0ba29814.streamlock.net:9443/live/rodanthe.stream/chunklist_w144885282.m3u8
Resolving 5b17d0ba29814.streamlock.net (5b17d0ba29814.streamlock.net)... 67.213.220.48
Connecting to 5b17d0ba29814.streamlock.net (5b17d0ba29814.streamlock.net)|67.213.220.48|:9443... connected.
HTTP request sent, awaiting response... 200 OK
Length: 232 [application/vnd.apple.mpegurl]
Saving to: ‘/tmp/chunklist_w144885282.m3u8’

     0K                                                       100% 1.46G=0s

2025-07-31 14:46:53 (1.46 GB/s) - ‘/tmp/chunklist_w144885282.m3u8’ saved [232/232]

++ tail -1 /tmp/chunklist_w144885282.m3u8
+ URL=media_w144885282_4569.ts
+ wget https://5b17d0ba29814.streamlock.net:9443/live/rodanthe.stream/media_w144885282_4569.ts -O /tmp/pos.ts
--2025-07-31 14:46:53--  https://5b17d0ba29814.streamlock.net:9443/live/rodanthe.stream/media_w144885282_4569.ts
Resolving 5b17d0ba29814.streamlock.net (5b17d0ba29814.streamlock.net)... 67.213.220.48
Connecting to 5b17d0ba29814.streamlock.net (5b17d0ba29814.streamlock.net)|67.213.220.48|:9443... connected.
HTTP request sent, awaiting response... 200 OK
Length: 1798784 (1.7M) [video/MP2T]
Saving to: ‘/tmp/pos.ts’

     0K .......... .......... .......... .......... ..........  2%  736K 2s
    50K .......... .......... .......... .......... ..........  5%  720K 2s
   100K .......... .......... .......... .......... ..........  8% 41.2M 1s
   150K .......... .......... .......... .......... .......... 11%  716K 2s
   200K .......... .......... .......... .......... .......... 14% 43.0M 1s
   250K .......... .......... .......... .......... .......... 17%  685K 1s
   300K .......... .......... .......... .......... .......... 19% 40.5M 1s
   350K .......... .......... .......... .......... .......... 22%  769K 1s
   400K .......... .......... .......... .......... .......... 25% 38.2M 1s
   450K .......... .......... .......... .......... .......... 28% 10.1M 1s
   500K .......... .......... .......... .......... .......... 31%  772K 1s
   550K .......... .......... .......... .......... .......... 34% 37.8M 1s
   600K .......... .......... .......... .......... .......... 37%  735K 1s
   650K .......... .......... .......... .......... .......... 39% 40.8M 1s
   700K .......... .......... .......... .......... .......... 42% 42.2M 1s
   750K .......... .......... .......... .......... .......... 45%  718K 1s
   800K .......... .......... .......... .......... .......... 48% 40.6M 1s
   850K .......... .......... .......... .......... .......... 51%  729K 1s
   900K .......... .......... .......... .......... .......... 54% 43.9M 1s
   950K .......... .......... .......... .......... .......... 56% 33.6M 0s
  1000K .......... .......... .......... .......... .......... 59%  725K 0s
  1050K .......... .......... .......... .......... .......... 62% 42.1M 0s
  1100K .......... .......... .......... .......... .......... 65% 29.2M 0s
  1150K .......... .......... .......... .......... .......... 68%  724K 0s
  1200K .......... .......... .......... .......... .......... 71% 44.1M 0s
  1250K .......... .......... .......... .......... .......... 74% 39.2M 0s
  1300K .......... .......... .......... .......... .......... 76%  741K 0s
  1350K .......... .......... .......... .......... .......... 79% 28.5M 0s
  1400K .......... .......... .......... .......... .......... 82% 40.6M 0s
  1450K .......... .......... .......... .......... .......... 85%  746K 0s
  1500K .......... .......... .......... .......... .......... 88% 28.5M 0s
  1550K .......... .......... .......... .......... .......... 91%  733K 0s
  1600K .......... .......... .......... .......... .......... 93% 28.5M 0s
  1650K .......... .......... .......... .......... .......... 96% 12.5M 0s
  1700K .......... .......... .......... .......... .......... 99% 15.9M 0s
  1750K ......                                                100% 12.3T=1.0s

2025-07-31 14:46:54 (1.73 MB/s) - ‘/tmp/pos.ts’ saved [1798784/1798784]

+ ffmpeg -i /tmp/pos.ts -frames:v 1 /tmp/wa/pos.png
ffmpeg version 5.1.6-0+deb12u1+rpt3 Copyright (c) 2000-2024 the FFmpeg developers
  built with gcc 12 (Debian 12.2.0-14)
  configuration: --prefix=/usr --extra-version=0+deb12u1+rpt3 --toolchain=hardened --incdir=/usr/include/aarch64-linux-gnu --enable-gpl --disable-stripping --disable-mmal --enable-gnutls --enable-ladspa --enable-libaom --enable-libass --enable-libbluray --enable-libbs2b --enable-libcaca --enable-libcdio --enable-libcodec2 --enable-libdav1d --enable-libflite --enable-libfontconfig --enable-libfreetype --enable-libfribidi --enable-libglslang --enable-libgme --enable-libgsm --enable-libjack --enable-libmp3lame --enable-libmysofa --enable-libopenjpeg --enable-libopenmpt --enable-libopus --enable-libpulse --enable-librabbitmq --enable-librist --enable-librubberband --enable-libshine --enable-libsnappy --enable-libsoxr --enable-libspeex --enable-libsrt --enable-libssh --enable-libsvtav1 --enable-libtheora --enable-libtwolame --enable-libvidstab --enable-libvorbis --enable-libvpx --enable-libwebp --enable-libx265 --enable-libxml2 --enable-libxvid --enable-libzimg --enable-libzmq --enable-libzvbi --enable-lv2 --enable-omx --enable-openal --enable-opencl --enable-opengl --enable-sand --enable-sdl2 --disable-sndio --enable-libjxl --enable-neon --enable-v4l2-request --enable-libudev --enable-epoxy --libdir=/usr/lib/aarch64-linux-gnu --arch=arm64 --enable-pocketsphinx --enable-librsvg --enable-libdc1394 --enable-libdrm --enable-vout-drm --enable-libiec61883 --enable-chromaprint --enable-frei0r --enable-libx264 --enable-libplacebo --enable-librav1e --enable-shared
  libavutil      57. 28.100 / 57. 28.100
  libavcodec     59. 37.100 / 59. 37.100
  libavformat    59. 27.100 / 59. 27.100
  libavdevice    59.  7.100 / 59.  7.100
  libavfilter     8. 44.100 /  8. 44.100
  libswscale      6.  7.100 /  6.  7.100
  libswresample   4.  7.100 /  4.  7.100
  libpostproc    56.  6.100 / 56.  6.100
[mpegts @ 0x5555e2896480] start time for stream 0 is not set in estimate_timings_from_pts
Input #0, mpegts, from '/tmp/pos.ts':
  Duration: 00:00:10.07, start: 18400.370289, bitrate: 1429 kb/s
  Program 1 
  Stream #0:0[0x102]: Data: timed_id3 (ID3  / 0x20334449)
  Stream #0:1[0x100]: Video: h264 (Main) ([27][0][0][0] / 0x001B), yuvj420p(pc, bt709, progressive), 1920x1080 [SAR 1:1 DAR 16:9], 15 fps, 15 tbr, 90k tbn
Stream mapping:
  Stream #0:1 -> #0:0 (h264 (native) -> png (native))
Press [q] to stop, [?] for help
[swscaler @ 0x5555e3135780] [swscaler @ 0x5555e3143480] deprecated pixel format used, make sure you did set range correctly
[swscaler @ 0x5555e3135780] [swscaler @ 0x5555e3143480] No accelerated colorspace conversion found from yuv420p to rgb24.
[swscaler @ 0x5555e3135780] [swscaler @ 0x5555e316f100] deprecated pixel format used, make sure you did set range correctly
[swscaler @ 0x5555e3135780] [swscaler @ 0x5555e316f100] No accelerated colorspace conversion found from yuv420p to rgb24.
[swscaler @ 0x5555e3135780] [swscaler @ 0x5555e31964e0] deprecated pixel format used, make sure you did set range correctly
[swscaler @ 0x5555e3135780] [swscaler @ 0x5555e31964e0] No accelerated colorspace conversion found from yuv420p to rgb24.
[swscaler @ 0x5555e3135780] [swscaler @ 0x5555e31bd8c0] deprecated pixel format used, make sure you did set range correctly
[swscaler @ 0x5555e3135780] [swscaler @ 0x5555e31bd8c0] No accelerated colorspace conversion found from yuv420p to rgb24.
[swscaler @ 0x5555e3135780] [swscaler @ 0x5555e31e4ca0] deprecated pixel format used, make sure you did set range correctly
[swscaler @ 0x5555e3135780] [swscaler @ 0x5555e31e4ca0] No accelerated colorspace conversion found from yuv420p to rgb24.
[swscaler @ 0x5555e3135780] [swscaler @ 0x5555e3152e90] deprecated pixel format used, make sure you did set range correctly
[swscaler @ 0x5555e3135780] [swscaler @ 0x5555e3152e90] No accelerated colorspace conversion found from yuv420p to rgb24.
[swscaler @ 0x5555e3135780] [swscaler @ 0x5555e316b400] deprecated pixel format used, make sure you did set range correctly
[swscaler @ 0x5555e3135780] [swscaler @ 0x5555e316b400] No accelerated colorspace conversion found from yuv420p to rgb24.
[swscaler @ 0x5555e3135780] [swscaler @ 0x5555e3199970] deprecated pixel format used, make sure you did set range correctly
[swscaler @ 0x5555e3135780] [swscaler @ 0x5555e3199970] No accelerated colorspace conversion found from yuv420p to rgb24.
[swscaler @ 0x5555e3135780] [swscaler @ 0x5555e31c0d50] deprecated pixel format used, make sure you did set range correctly
[swscaler @ 0x5555e3135780] [swscaler @ 0x5555e31c0d50] No accelerated colorspace conversion found from yuv420p to rgb24.
[swscaler @ 0x5555e3135780] [swscaler @ 0x5555e31dd110] deprecated pixel format used, make sure you did set range correctly
[swscaler @ 0x5555e3135780] [swscaler @ 0x5555e31dd110] No accelerated colorspace conversion found from yuv420p to rgb24.
[swscaler @ 0x5555e3135780] [swscaler @ 0x5555e3152e90] deprecated pixel format used, make sure you did set range correctly
[swscaler @ 0x5555e3135780] [swscaler @ 0x5555e3152e90] No accelerated colorspace conversion found from yuv420p to rgb24.
[swscaler @ 0x5555e3135780] [swscaler @ 0x5555e316b400] deprecated pixel format used, make sure you did set range correctly
[swscaler @ 0x5555e3135780] [swscaler @ 0x5555e316b400] No accelerated colorspace conversion found from yuv420p to rgb24.
[swscaler @ 0x5555e3135780] [swscaler @ 0x5555e3199970] deprecated pixel format used, make sure you did set range correctly
[swscaler @ 0x5555e3135780] [swscaler @ 0x5555e3199970] No accelerated colorspace conversion found from yuv420p to rgb24.
[swscaler @ 0x5555e3135780] [swscaler @ 0x5555e31c0d50] deprecated pixel format used, make sure you did set range correctly
[swscaler @ 0x5555e3135780] [swscaler @ 0x5555e31c0d50] No accelerated colorspace conversion found from yuv420p to rgb24.
[swscaler @ 0x5555e3135780] [swscaler @ 0x5555e31dd110] deprecated pixel format used, make sure you did set range correctly
[swscaler @ 0x5555e3135780] [swscaler @ 0x5555e31dd110] No accelerated colorspace conversion found from yuv420p to rgb24.
[swscaler @ 0x5555e3135780] [swscaler @ 0x5555e3152e90] deprecated pixel format used, make sure you did set range correctly
[swscaler @ 0x5555e3135780] [swscaler @ 0x5555e3152e90] No accelerated colorspace conversion found from yuv420p to rgb24.
[swscaler @ 0x5555e3135780] [swscaler @ 0x5555e316b400] deprecated pixel format used, make sure you did set range correctly
[swscaler @ 0x5555e3135780] [swscaler @ 0x5555e316b400] No accelerated colorspace conversion found from yuv420p to rgb24.
[swscaler @ 0x5555e3135780] [swscaler @ 0x5555e3199970] deprecated pixel format used, make sure you did set range correctly
[swscaler @ 0x5555e3135780] [swscaler @ 0x5555e3199970] No accelerated colorspace conversion found from yuv420p to rgb24.
[swscaler @ 0x5555e3135780] [swscaler @ 0x5555e31c0d50] deprecated pixel format used, make sure you did set range correctly
[swscaler @ 0x5555e3135780] [swscaler @ 0x5555e31c0d50] No accelerated colorspace conversion found from yuv420p to rgb24.
[swscaler @ 0x5555e3135780] [swscaler @ 0x5555e31dd110] deprecated pixel format used, make sure you did set range correctly
[swscaler @ 0x5555e3135780] [swscaler @ 0x5555e31dd110] No accelerated colorspace conversion found from yuv420p to rgb24.
Output #0, image2, to '/tmp/wa/pos.png':
  Metadata:
    encoder         : Lavf59.27.100
  Stream #0:0: Video: png, rgb24(pc, gbr/bt709/bt709, progressive), 1920x1080 [SAR 1:1 DAR 16:9], q=2-31, 200 kb/s, 15 fps, 15 tbn
    Metadata:
      encoder         : Lavc59.37.100 png
frame=    1 fps=0.0 q=0.0 size=N/A time=00:00:00.00 bitrate=N/A speed=   0x    [image2 @ 0x5555e28d5be0] The specified filename '/tmp/wa/pos.png' does not contain an image sequence pattern or a pattern is invalid.
[image2 @ 0x5555e28d5be0] Use a pattern such as %03d for an image sequence or use the -update option (with -frames:v 1 if needed) to write a single image.
frame=    1 fps=0.0 q=-0.0 Lsize=N/A time=00:00:00.06 bitrate=N/A speed=0.312x    
video:1713kB audio:0kB subtitle:0kB other streams:0kB global headers:0kB muxing overhead: unknown
+ convert /tmp/wa/pos.png -gravity Northeast -fill black -pointsize 32 -annotate +20+20 '2025-07-31: 14:46' /tmp/wa/pos1.png
+ '[' 0 -ne 0 ']'
+ wget https://5b17d0ba29814.streamlock.net:9443/live/avon.stream/chunklist_w1479874796.m3u8 -O /tmp/chunklist_w1479874796.m3u8
--2025-07-31 14:46:59--  https://5b17d0ba29814.streamlock.net:9443/live/avon.stream/chunklist_w1479874796.m3u8
Resolving 5b17d0ba29814.streamlock.net (5b17d0ba29814.streamlock.net)... 67.213.220.48
Connecting to 5b17d0ba29814.streamlock.net (5b17d0ba29814.streamlock.net)|67.213.220.48|:9443... connected.
HTTP request sent, awaiting response... 200 OK
Length: 229 [application/vnd.apple.mpegurl]
Saving to: ‘/tmp/chunklist_w1479874796.m3u8’

     0K                                                       100%  984M=0s

2025-07-31 14:47:00 (984 MB/s) - ‘/tmp/chunklist_w1479874796.m3u8’ saved [229/229]

++ tail -1 /tmp/chunklist_w1479874796.m3u8
+ URL=media_w1479874796_4600.ts
+ wget https://5b17d0ba29814.streamlock.net:9443/live/avon.stream/media_w1479874796_4600.ts -O /tmp/aos.ts
--2025-07-31 14:47:00--  https://5b17d0ba29814.streamlock.net:9443/live/avon.stream/media_w1479874796_4600.ts
Resolving 5b17d0ba29814.streamlock.net (5b17d0ba29814.streamlock.net)... 67.213.220.48
Connecting to 5b17d0ba29814.streamlock.net (5b17d0ba29814.streamlock.net)|67.213.220.48|:9443... connected.
HTTP request sent, awaiting response... 200 OK
Length: 3793840 (3.6M) [video/MP2T]
Saving to: ‘/tmp/aos.ts’

     0K .......... .......... .......... .......... ..........  1%  710K 5s
    50K .......... .......... .......... .......... ..........  2%  724K 5s
   100K .......... .......... .......... .......... ..........  4% 7.24M 3s
   150K .......... .......... .......... .......... ..........  5%  651K 4s
   200K .......... .......... .......... .......... ..........  6% 32.4M 3s
   250K .......... .......... .......... .......... ..........  8% 43.6M 3s
   300K .......... .......... .......... .......... ..........  9%  661K 3s
   350K .......... .......... .......... .......... .......... 10% 26.8M 3s
   400K .......... .......... .......... .......... .......... 12% 40.3M 2s
   450K .......... .......... .......... .......... .......... 13%  651K 2s
   500K .......... .......... .......... .......... .......... 14% 40.4M 2s
   550K .......... .......... .......... .......... .......... 16% 34.4M 2s
   600K .......... .......... .......... .......... .......... 17% 13.3M 2s
   650K .......... .......... .......... .......... .......... 18%  749K 2s
   700K .......... .......... .......... .......... .......... 20% 41.1M 2s
   750K .......... .......... .......... .......... .......... 21% 27.8M 2s
   800K .......... .......... .......... .......... .......... 22%  733K 2s
   850K .......... .......... .......... .......... .......... 24% 38.1M 2s
   900K .......... .......... .......... .......... .......... 25% 41.9M 2s
   950K .......... .......... .......... .......... .......... 26% 35.1M 1s
  1000K .......... .......... .......... .......... .......... 28% 27.7M 1s
  1050K .......... .......... .......... .......... .......... 29% 33.1M 1s
  1100K .......... .......... .......... .......... .......... 31%  665K 1s
  1150K .......... .......... .......... .......... .......... 32% 25.9M 1s
  1200K .......... .......... .......... .......... .......... 33% 39.0M 1s
  1250K .......... .......... .......... .......... .......... 35%  653K 1s
  1300K .......... .......... .......... .......... .......... 36% 26.5M 1s
  1350K .......... .......... .......... .......... .......... 37% 36.3M 1s
  1400K .......... .......... .......... .......... .......... 39%  712K 1s
  1450K .......... .......... .......... .......... .......... 40% 39.8M 1s
  1500K .......... .......... .......... .......... .......... 41%  719K 1s
  1550K .......... .......... .......... .......... .......... 43% 26.1M 1s
  1600K .......... .......... .......... .......... .......... 44% 41.8M 1s
  1650K .......... .......... .......... .......... .......... 45% 37.7M 1s
  1700K .......... .......... .......... .......... .......... 47%  711K 1s
  1750K .......... .......... .......... .......... .......... 48% 38.1M 1s
  1800K .......... .......... .......... .......... .......... 49%  700K 1s
  1850K .......... .......... .......... .......... .......... 51% 40.8M 1s
  1900K .......... .......... .......... .......... .......... 52% 27.4M 1s
  1950K .......... .......... .......... .......... .......... 53%  617K 1s
  2000K .......... .......... .......... .......... .......... 55% 34.8M 1s
  2050K .......... .......... .......... .......... .......... 56% 37.6M 1s
  2100K .......... .......... .......... .......... .......... 58% 27.9M 1s
  2150K .......... .......... .......... .......... .......... 59%  733K 1s
  2200K .......... .......... .......... .......... .......... 60% 27.2M 1s
  2250K .......... .......... .......... .......... .......... 62% 36.5M 1s
  2300K .......... .......... .......... .......... .......... 63%  700K 1s
  2350K .......... .......... .......... .......... .......... 64% 40.4M 1s
  2400K .......... .......... .......... .......... .......... 66% 41.2M 1s
  2450K .......... .......... .......... .......... .......... 67% 33.6M 1s
  2500K .......... .......... .......... .......... .......... 68%  693K 1s
  2550K .......... .......... .......... .......... .......... 70% 35.5M 1s
  2600K .......... .......... .......... .......... .......... 71% 42.1M 1s
  2650K .......... .......... .......... .......... .......... 72% 26.6M 0s
  2700K .......... .......... .......... .......... .......... 74%  700K 0s
  2750K .......... .......... .......... .......... .......... 75% 34.0M 0s
  2800K .......... .......... .......... .......... .......... 76% 19.9M 0s
  2850K .......... .......... .......... .......... .......... 78% 12.3M 0s
  2900K .......... .......... .......... .......... .......... 79%  774K 0s
  2950K .......... .......... .......... .......... .......... 80% 26.5M 0s
  3000K .......... .......... .......... .......... .......... 82%  721K 0s
  3050K .......... .......... .......... .......... .......... 83% 28.3M 0s
  3100K .......... .......... .......... .......... .......... 85% 28.1M 0s
  3150K .......... .......... .......... .......... .......... 86% 23.6M 0s
  3200K .......... .......... .......... .......... .......... 87%  718K 0s
  3250K .......... .......... .......... .......... .......... 89% 40.5M 0s
  3300K .......... .......... .......... .......... .......... 90% 31.9M 0s
  3350K .......... .......... .......... .......... .......... 91%  716K 0s
  3400K .......... .......... .......... .......... .......... 93% 46.9M 0s
  3450K .......... .......... .......... .......... .......... 94% 27.9M 0s
  3500K .......... .......... .......... .......... .......... 95% 10.7M 0s
  3550K .......... .......... .......... .......... .......... 97%  759K 0s
  3600K .......... .......... .......... .......... .......... 98% 39.9M 0s
  3650K .......... .......... .......... .......... .......... 99%  712K 0s
  3700K ....                                                  100% 9.17T=1.8s

2025-07-31 14:47:02 (2.01 MB/s) - ‘/tmp/aos.ts’ saved [3793840/3793840]

+ ffmpeg -i /tmp/aos.ts -frames:v 1 /tmp/wa/aos.png
ffmpeg version 5.1.6-0+deb12u1+rpt3 Copyright (c) 2000-2024 the FFmpeg developers
  built with gcc 12 (Debian 12.2.0-14)
  configuration: --prefix=/usr --extra-version=0+deb12u1+rpt3 --toolchain=hardened --incdir=/usr/include/aarch64-linux-gnu --enable-gpl --disable-stripping --disable-mmal --enable-gnutls --enable-ladspa --enable-libaom --enable-libass --enable-libbluray --enable-libbs2b --enable-libcaca --enable-libcdio --enable-libcodec2 --enable-libdav1d --enable-libflite --enable-libfontconfig --enable-libfreetype --enable-libfribidi --enable-libglslang --enable-libgme --enable-libgsm --enable-libjack --enable-libmp3lame --enable-libmysofa --enable-libopenjpeg --enable-libopenmpt --enable-libopus --enable-libpulse --enable-librabbitmq --enable-librist --enable-librubberband --enable-libshine --enable-libsnappy --enable-libsoxr --enable-libspeex --enable-libsrt --enable-libssh --enable-libsvtav1 --enable-libtheora --enable-libtwolame --enable-libvidstab --enable-libvorbis --enable-libvpx --enable-libwebp --enable-libx265 --enable-libxml2 --enable-libxvid --enable-libzimg --enable-libzmq --enable-libzvbi --enable-lv2 --enable-omx --enable-openal --enable-opencl --enable-opengl --enable-sand --enable-sdl2 --disable-sndio --enable-libjxl --enable-neon --enable-v4l2-request --enable-libudev --enable-epoxy --libdir=/usr/lib/aarch64-linux-gnu --arch=arm64 --enable-pocketsphinx --enable-librsvg --enable-libdc1394 --enable-libdrm --enable-vout-drm --enable-libiec61883 --enable-chromaprint --enable-frei0r --enable-libx264 --enable-libplacebo --enable-librav1e --enable-shared
  libavutil      57. 28.100 / 57. 28.100
  libavcodec     59. 37.100 / 59. 37.100
  libavformat    59. 27.100 / 59. 27.100
  libavdevice    59.  7.100 / 59.  7.100
  libavfilter     8. 44.100 /  8. 44.100
  libswscale      6.  7.100 /  6.  7.100
  libswresample   4.  7.100 /  4.  7.100
  libpostproc    56.  6.100 / 56.  6.100
[mpegts @ 0x555582d26480] start time for stream 0 is not set in estimate_timings_from_pts
Input #0, mpegts, from '/tmp/aos.ts':
  Duration: 00:00:10.00, start: 18405.030289, bitrate: 3034 kb/s
  Program 1 
  Stream #0:0[0x102]: Data: timed_id3 (ID3  / 0x20334449)
  Stream #0:1[0x100]: Video: h264 (High) ([27][0][0][0] / 0x001B), yuvj420p(pc, bt709, progressive), 1920x1080, 30 fps, 30 tbr, 90k tbn
Stream mapping:
  Stream #0:1 -> #0:0 (h264 (native) -> png (native))
Press [q] to stop, [?] for help
[swscaler @ 0x5555835b6420] [swscaler @ 0x5555835c4120] deprecated pixel format used, make sure you did set range correctly
[swscaler @ 0x5555835b6420] [swscaler @ 0x5555835c4120] No accelerated colorspace conversion found from yuv420p to rgb24.
[swscaler @ 0x5555835b6420] [swscaler @ 0x5555835efda0] deprecated pixel format used, make sure you did set range correctly
[swscaler @ 0x5555835b6420] [swscaler @ 0x5555835efda0] No accelerated colorspace conversion found from yuv420p to rgb24.
[swscaler @ 0x5555835b6420] [swscaler @ 0x555583617180] deprecated pixel format used, make sure you did set range correctly
[swscaler @ 0x5555835b6420] [swscaler @ 0x555583617180] No accelerated colorspace conversion found from yuv420p to rgb24.
[swscaler @ 0x5555835b6420] [swscaler @ 0x55558363e560] deprecated pixel format used, make sure you did set range correctly
[swscaler @ 0x5555835b6420] [swscaler @ 0x55558363e560] No accelerated colorspace conversion found from yuv420p to rgb24.
[swscaler @ 0x5555835b6420] [swscaler @ 0x555583665940] deprecated pixel format used, make sure you did set range correctly
[swscaler @ 0x5555835b6420] [swscaler @ 0x555583665940] No accelerated colorspace conversion found from yuv420p to rgb24.
[swscaler @ 0x5555835b6420] [swscaler @ 0x5555835d3b30] deprecated pixel format used, make sure you did set range correctly
[swscaler @ 0x5555835b6420] [swscaler @ 0x5555835d3b30] No accelerated colorspace conversion found from yuv420p to rgb24.
[swscaler @ 0x5555835b6420] [swscaler @ 0x5555835ec0a0] deprecated pixel format used, make sure you did set range correctly
[swscaler @ 0x5555835b6420] [swscaler @ 0x5555835ec0a0] No accelerated colorspace conversion found from yuv420p to rgb24.
[swscaler @ 0x5555835b6420] [swscaler @ 0x55558361a660] deprecated pixel format used, make sure you did set range correctly
[swscaler @ 0x5555835b6420] [swscaler @ 0x55558361a660] No accelerated colorspace conversion found from yuv420p to rgb24.
[swscaler @ 0x5555835b6420] [swscaler @ 0x555583641a40] deprecated pixel format used, make sure you did set range correctly
[swscaler @ 0x5555835b6420] [swscaler @ 0x555583641a40] No accelerated colorspace conversion found from yuv420p to rgb24.
[swscaler @ 0x5555835b6420] [swscaler @ 0x55558365de00] deprecated pixel format used, make sure you did set range correctly
[swscaler @ 0x5555835b6420] [swscaler @ 0x55558365de00] No accelerated colorspace conversion found from yuv420p to rgb24.
[swscaler @ 0x5555835b6420] [swscaler @ 0x5555835d3b30] deprecated pixel format used, make sure you did set range correctly
[swscaler @ 0x5555835b6420] [swscaler @ 0x5555835d3b30] No accelerated colorspace conversion found from yuv420p to rgb24.
[swscaler @ 0x5555835b6420] [swscaler @ 0x5555835ec0a0] deprecated pixel format used, make sure you did set range correctly
[swscaler @ 0x5555835b6420] [swscaler @ 0x5555835ec0a0] No accelerated colorspace conversion found from yuv420p to rgb24.
[swscaler @ 0x5555835b6420] [swscaler @ 0x55558361a660] deprecated pixel format used, make sure you did set range correctly
[swscaler @ 0x5555835b6420] [swscaler @ 0x55558361a660] No accelerated colorspace conversion found from yuv420p to rgb24.
[swscaler @ 0x5555835b6420] [swscaler @ 0x555583641a40] deprecated pixel format used, make sure you did set range correctly
[swscaler @ 0x5555835b6420] [swscaler @ 0x555583641a40] No accelerated colorspace conversion found from yuv420p to rgb24.
[swscaler @ 0x5555835b6420] [swscaler @ 0x55558365de00] deprecated pixel format used, make sure you did set range correctly
[swscaler @ 0x5555835b6420] [swscaler @ 0x55558365de00] No accelerated colorspace conversion found from yuv420p to rgb24.
[swscaler @ 0x5555835b6420] [swscaler @ 0x5555835d3b30] deprecated pixel format used, make sure you did set range correctly
[swscaler @ 0x5555835b6420] [swscaler @ 0x5555835d3b30] No accelerated colorspace conversion found from yuv420p to rgb24.
[swscaler @ 0x5555835b6420] [swscaler @ 0x5555835ec0a0] deprecated pixel format used, make sure you did set range correctly
[swscaler @ 0x5555835b6420] [swscaler @ 0x5555835ec0a0] No accelerated colorspace conversion found from yuv420p to rgb24.
[swscaler @ 0x5555835b6420] [swscaler @ 0x55558361a660] deprecated pixel format used, make sure you did set range correctly
[swscaler @ 0x5555835b6420] [swscaler @ 0x55558361a660] No accelerated colorspace conversion found from yuv420p to rgb24.
[swscaler @ 0x5555835b6420] [swscaler @ 0x555583641a40] deprecated pixel format used, make sure you did set range correctly
[swscaler @ 0x5555835b6420] [swscaler @ 0x555583641a40] No accelerated colorspace conversion found from yuv420p to rgb24.
[swscaler @ 0x5555835b6420] [swscaler @ 0x55558365de00] deprecated pixel format used, make sure you did set range correctly
[swscaler @ 0x5555835b6420] [swscaler @ 0x55558365de00] No accelerated colorspace conversion found from yuv420p to rgb24.
Output #0, image2, to '/tmp/wa/aos.png':
  Metadata:
    encoder         : Lavf59.27.100
  Stream #0:0: Video: png, rgb24(pc, gbr/bt709/bt709, progressive), 1920x1080, q=2-31, 200 kb/s, 30 fps, 30 tbn
    Metadata:
      encoder         : Lavc59.37.100 png
frame=    1 fps=0.0 q=0.0 size=N/A time=00:00:00.00 bitrate=N/A speed=   0x    [image2 @ 0x555582da1fa0] The specified filename '/tmp/wa/aos.png' does not contain an image sequence pattern or a pattern is invalid.
[image2 @ 0x555582da1fa0] Use a pattern such as %03d for an image sequence or use the -update option (with -frames:v 1 if needed) to write a single image.
frame=    1 fps=0.0 q=-0.0 Lsize=N/A time=00:00:00.03 bitrate=N/A speed=0.169x    
video:1800kB audio:0kB subtitle:0kB other streams:0kB global headers:0kB muxing overhead: unknown
+ convert /tmp/wa/aos.png -gravity Northeast -fill black -pointsize 32 -annotate +20+20 '2025-07-31: 14:46' /tmp/wa/aos1.png
+ '[' 0 -ne 0 ']'
+ wget https://5b17d0ba29814.streamlock.net:9443/live/rodanthepi.stream/chunklist_w167089497.m3u8 -O /tmp/chunklist_w167089497.m3u8
--2025-07-31 14:47:04--  https://5b17d0ba29814.streamlock.net:9443/live/rodanthepi.stream/chunklist_w167089497.m3u8
Resolving 5b17d0ba29814.streamlock.net (5b17d0ba29814.streamlock.net)... 67.213.220.48
Connecting to 5b17d0ba29814.streamlock.net (5b17d0ba29814.streamlock.net)|67.213.220.48|:9443... connected.
HTTP request sent, awaiting response... 404 Not Found
2025-07-31 14:47:04 ERROR 404: Not Found.

++ tail -1 /tmp/chunklist_w167089497.m3u8
+ URL=
+ wget https://5b17d0ba29814.streamlock.net:9443/live/rodanthepi.stream/ -O /tmp/wos.ts
--2025-07-31 14:47:04--  https://5b17d0ba29814.streamlock.net:9443/live/rodanthepi.stream/
Resolving 5b17d0ba29814.streamlock.net (5b17d0ba29814.streamlock.net)... 67.213.220.48
Connecting to 5b17d0ba29814.streamlock.net (5b17d0ba29814.streamlock.net)|67.213.220.48|:9443... connected.
HTTP request sent, awaiting response... 404 Not Found
2025-07-31 14:47:05 ERROR 404: Not Found.

+ ffmpeg -i /tmp/wos.ts -frames:v 1 /tmp/wa/wos.png
ffmpeg version 5.1.6-0+deb12u1+rpt3 Copyright (c) 2000-2024 the FFmpeg developers
  built with gcc 12 (Debian 12.2.0-14)
  configuration: --prefix=/usr --extra-version=0+deb12u1+rpt3 --toolchain=hardened --incdir=/usr/include/aarch64-linux-gnu --enable-gpl --disable-stripping --disable-mmal --enable-gnutls --enable-ladspa --enable-libaom --enable-libass --enable-libbluray --enable-libbs2b --enable-libcaca --enable-libcdio --enable-libcodec2 --enable-libdav1d --enable-libflite --enable-libfontconfig --enable-libfreetype --enable-libfribidi --enable-libglslang --enable-libgme --enable-libgsm --enable-libjack --enable-libmp3lame --enable-libmysofa --enable-libopenjpeg --enable-libopenmpt --enable-libopus --enable-libpulse --enable-librabbitmq --enable-librist --enable-librubberband --enable-libshine --enable-libsnappy --enable-libsoxr --enable-libspeex --enable-libsrt --enable-libssh --enable-libsvtav1 --enable-libtheora --enable-libtwolame --enable-libvidstab --enable-libvorbis --enable-libvpx --enable-libwebp --enable-libx265 --enable-libxml2 --enable-libxvid --enable-libzimg --enable-libzmq --enable-libzvbi --enable-lv2 --enable-omx --enable-openal --enable-opencl --enable-opengl --enable-sand --enable-sdl2 --disable-sndio --enable-libjxl --enable-neon --enable-v4l2-request --enable-libudev --enable-epoxy --libdir=/usr/lib/aarch64-linux-gnu --arch=arm64 --enable-pocketsphinx --enable-librsvg --enable-libdc1394 --enable-libdrm --enable-vout-drm --enable-libiec61883 --enable-chromaprint --enable-frei0r --enable-libx264 --enable-libplacebo --enable-librav1e --enable-shared
  libavutil      57. 28.100 / 57. 28.100
  libavcodec     59. 37.100 / 59. 37.100
  libavformat    59. 27.100 / 59. 27.100
  libavdevice    59.  7.100 / 59.  7.100
  libavfilter     8. 44.100 /  8. 44.100
  libswscale      6.  7.100 /  6.  7.100
  libswresample   4.  7.100 /  4.  7.100
  libpostproc    56.  6.100 / 56.  6.100
/tmp/wos.ts: Invalid data found when processing input
+ convert /tmp/wa/wos.png -gravity Northeast -fill black -pointsize 32 -annotate +20+20 '2025-07-31: 14:46' /tmp/wa/wos1.png
convert-im6.q16: unable to open image `/tmp/wa/wos.png': No such file or directory @ error/blob.c/OpenBlob/2924.
convert-im6.q16: no images defined `/tmp/wa/wos1.png' @ error/convert.c/ConvertImageCommand/3229.
+ '[' 1 -ne 0 ']'
+ convert -size 800x400 -background black -fill white -gravity center -pointsize 48 'label:as of 2025-07-31: 14:46\nWaves cam is down.\n:(' /tmp/wa/wos1.png
+ mv /tmp/wa/pos1.png pos.png
+ mv /tmp/wa/wos1.png wos.png
+ mv /tmp/wa/aos1.png aos.png
+ echo 'fetching radio mp3'
+ nlpid=6978
+ wget http://93.190.137.196:8427/ -O /tmp/wa/nlradio.mp3
+ sleep 5
--2025-07-31 14:47:05--  http://93.190.137.196:8427/
Connecting to 93.190.137.196:8427... connected.
HTTP request sent, awaiting response... 200 OK
Length: unspecified [audio/mpeg]
Saving to: ‘/tmp/wa/nlradio.mp3’

     0K .......... .......... .......... .......... ..........  153K
    50K .......... .......... .......... .......... ..........  304K
   100K .......... .......... .......... .......... .......... 2.82M
   150K .......... .......... .......... .......... .......... 9.09M
   200K .......... .......... .......... .......... ..........  350K
   250K .......... .......... .......... .......... .......... 33.2K
   300K .......... .......... .......... .......... .......... 23.6K
   350K .......+ kill 6978
+ whereis git
+ git status
+ git add 7day.png accuweather.png aos.png captain.png cones.png ikite.png noaa.png pos.png surfchex1.png surfchex2.png tides.png wos.png nlradio.mp3 surf-temp.gif
++ date '+%Y-%m-%d %H:%M:%S'
+ git commit -m 'checkin lwwa web resources: 2025-07-31 14:47:10'
[main 22fae41] checkin lwwa web resources: 2025-07-31 14:47:10
 12 files changed, 0 insertions(+), 0 deletions(-)
+ git push --set-upstream origin main
To github.com:sl45082/basic.git
   b8f20cd..22fae41  main -> main
+ date
+ echo 'Finish with deploy.sh'
